<?xml version="1.0" encoding="iso-8859-1"?>
<!-- Generator: Adobe Illustrator 18.0.0, SVG Export Plug-In . SVG Version: 6.00 Build 0)  -->
<!DOCTYPE svg PUBLIC "-//W3C//DTD SVG 1.1//EN" "http://www.w3.org/Graphics/SVG/1.1/DTD/svg11.dtd">
<svg version="1.1" id="Capa_1" xmlns="http://www.w3.org/2000/svg" xmlns:xlink="http://www.w3.org/1999/xlink" x="0px" y="0px"
	 viewBox="0 0 431.438 431.438" style="enable-background:new 0 0 431.438 431.438;" xml:space="preserve">
<path d="M275.264,50.337c-11.709-26.315-41.065-44.367-57.941-50.08c-1.083-0.367-2.197-0.323-3.201,0.018l-0.006-0.018
	c-16.876,5.713-46.232,23.765-57.941,50.08c-30.09,67.62-22.423,168.347-22.082,172.601c0.209,2.598,2.378,4.611,4.984,4.611
	c0,0,53.436,0,53.472,0c3.319,0,6.155,3.765,8.079,7.68c-2.489,0.286-4.43,2.377-4.43,4.942v22.523h-6.672c-2.762,0-5,2.239-5,5
	v132.653c0,17.143,13.946,31.09,31.088,31.09s31.088-13.947,31.088-31.09V267.694c0-2.761-2.238-5-5-5h-6.672v-22.523
	c0-2.497-1.836-4.549-4.229-4.922c1.924-3.923,4.763-7.711,8.089-7.711c0.036,0,53.472,0,53.472,0c2.606,0,4.775-2.003,4.984-4.601
	C297.687,218.683,305.354,117.957,275.264,50.337z M215.613,421.438c-11.628,0-21.088-9.461-21.088-21.09V289.733h42.176v110.615
	C236.701,411.977,227.241,421.438,215.613,421.438z M236.701,272.694v7.038h-42.176v-7.038H236.701z M206.197,262.694v-17.523
	h18.832v17.523H206.197z M219.955,235.171h-8.473c-2.309-6.401-6.824-14.086-13.818-16.701c0.695-13.166,4.734-37.542,18.054-42.235
	c13.287,4.687,17.343,29.069,18.051,42.236C226.777,221.087,222.262,228.771,219.955,235.171z M287.667,217.538h-43.958
	c-0.779-12.818-4.911-45.881-26.773-51.372l-0.006,0.022c-0.775-0.196-1.601-0.23-2.43-0.021
	c-21.861,5.491-25.992,38.554-26.771,51.372H143.77c-1.129-20.602-3.98-105.782,21.541-163.136
	c9.963-22.392,35.484-38.54,50.408-44.1c14.924,5.561,40.445,21.708,50.408,44.1C291.631,111.717,288.793,196.928,287.667,217.538z"
	/>
<g>
</g>
<g>
</g>
<g>
</g>
<g>
</g>
<g>
</g>
<g>
</g>
<g>
</g>
<g>
</g>
<g>
</g>
<g>
</g>
<g>
</g>
<g>
</g>
<g>
</g>
<g>
</g>
<g>
</g>
</svg>
